<?xml version="1.0" encoding="utf-8"?>
<!-- Generator: Adobe Illustrator 24.1.0, SVG Export Plug-In . SVG Version: 6.00 Build 0)  -->
<svg version="1.1" id="Layer_1" xmlns="http://www.w3.org/2000/svg" xmlns:xlink="http://www.w3.org/1999/xlink" x="0px" y="0px"
	 viewBox="0 0 265.6 265.5" style="enable-background:new 0 0 265.6 265.5;" xml:space="preserve">
<style type="text/css">
	.st0{fill:#FFFFFF;}
	.st1{fill:#FF6666;}
</style>
<path d="M314.5,6.8v15.6H597V6.8H314.5z M314.5,123.6v15.6H597v-15.6H314.5z M314.5,240.4V256H597v-15.6H314.5z"/>
<rect x="102.5" y="-282" transform="matrix(0.7071 -0.7071 0.7071 0.7071 131.8486 36.7613)" class="st0" width="15.6" height="282.5"/>
<rect x="113.8" y="194.1" transform="matrix(0.7071 -0.7071 0.7071 0.7071 -88.3061 190.5938)" class="st1" width="144.2" height="15.6"/>
<rect x="73.3" y="129.8" transform="matrix(0.7071 -0.7071 0.7071 0.7071 -119.0037 116.4886)" class="st1" width="15.6" height="144.2"/>
<rect x="-31" y="-148.5" transform="matrix(0.7071 -0.7071 0.7071 0.7071 131.7694 36.7527)" class="st0" width="282.5" height="15.6"/>
<rect x="126.6" y="8.6" class="st1" width="13.8" height="249.8"/>
</svg>
